<?xml version="1.0" encoding="UTF-8"?>
<svg xmlns="http://www.w3.org/2000/svg" xmlns:xlink="http://www.w3.org/1999/xlink" width="233px" height="79px" viewBox="0 0 233 79" version="1.1">
<g id="surface1">
<path style=" stroke:none;fill-rule:nonzero;fill:rgb(26.666668%,61.960787%,46.27451%);fill-opacity:1;" d="M 0 0 C 76.890625 0 153.78125 0 233 0 C 233 26.070312 233 52.140625 233 79 C 156.109375 79 79.21875 79 0 79 C 0 52.929688 0 26.859375 0 0 Z M 0 0 "/>
<path style=" stroke:none;fill-rule:nonzero;fill:rgb(90.588236%,58.431375%,13.333334%);fill-opacity:1;" d="M 193 15 C 193.023438 15.355469 193.050781 15.710938 193.074219 16.078125 C 193.113281 16.535156 193.148438 16.996094 193.1875 17.46875 C 193.238281 18.15625 193.238281 18.15625 193.292969 18.859375 C 193.394531 19.421875 193.394531 19.421875 193.5 20 C 193.828125 20.164062 194.160156 20.328125 194.5 20.5 C 194.5 18.683594 194.5 16.871094 194.5 15 C 202.367188 15.617188 208.109375 18.625 213.300781 24.492188 C 214 25.5 214 25.5 214 27 C 213.105469 27.488281 212.210938 27.976562 211.3125 28.464844 C 210.417969 28.957031 210.417969 28.957031 210 30 C 210.269531 29.898438 210.542969 29.796875 210.820312 29.6875 C 211.179688 29.554688 211.539062 29.421875 211.90625 29.28125 C 212.261719 29.148438 212.613281 29.015625 212.976562 28.875 C 213.8125 28.570312 214.65625 28.28125 215.5 28 C 215.824219 28.875 216.148438 29.75 216.46875 30.625 C 216.738281 31.355469 216.738281 31.355469 217.015625 32.101562 C 218.8125 37.277344 218.636719 43.441406 216.5 48.5 C 216.175781 49.171875 215.84375 49.839844 215.5 50.5 C 214.820312 50.269531 214.820312 50.269531 214.125 50.03125 C 212.917969 49.636719 211.734375 49.285156 210.5 49 C 211.582031 50.136719 212.726562 51.078125 214 52 C 212.59375 56.125 209.289062 58.746094 205.5 60.6875 C 201.816406 62.371094 198.59375 63.761719 194.5 63.5 C 194.5 61.851562 194.5 60.199219 194.5 58.5 C 194.003906 58.5 193.511719 58.5 193 58.5 C 193 60.148438 193 61.800781 193 63.5 C 187.757812 63.976562 183.066406 61.609375 179 58.5 C 178.71875 58.292969 178.433594 58.085938 178.144531 57.875 C 176.152344 56.339844 174.878906 54.570312 173.5 52.5 C 174.34375 51.613281 174.945312 51.027344 176.0625 50.5 C 177.175781 50.042969 177.175781 50.042969 177.5 48.5 C 176.953125 48.738281 176.40625 48.972656 175.84375 49.21875 C 174.734375 49.699219 173.652344 50.117188 172.5 50.5 C 169.597656 45.179688 168.5 39.648438 169.949219 33.640625 C 170.429688 32.074219 170.9375 30.535156 171.5 29 C 174.089844 28.324219 175.160156 28.851562 177.5 30 C 177.5 29.503906 177.5 29.011719 177.5 28.5 C 176.175781 27.960938 174.859375 27.453125 173.5 27 C 175.097656 22.339844 179.03125 19.648438 183.203125 17.335938 C 186.339844 15.859375 189.527344 15 193 15 Z M 193 15 "/>
<path style=" stroke:none;fill-rule:nonzero;fill:rgb(95.294118%,97.254902%,96.470588%);fill-opacity:1;" d="M 82 13.28125 C 82.328125 13.261719 82.660156 13.242188 83 13.21875 C 84.589844 13.664062 85.082031 14.660156 86 16 C 86.429688 17.269531 86.761719 18.433594 87.039062 19.734375 C 87.121094 20.101562 87.203125 20.46875 87.289062 20.84375 C 88.304688 25.609375 88.828125 30.445312 89.375 35.28125 C 89.484375 36.230469 89.597656 37.179688 89.710938 38.128906 C 89.976562 40.417969 90.242188 42.707031 90.5 45 C 91.472656 41.429688 92.4375 37.863281 93.238281 34.25 C 94.058594 30.625 95.101562 27.082031 96.1875 23.53125 C 96.375 22.886719 96.566406 22.246094 96.753906 21.601562 C 98.550781 15.722656 98.550781 15.722656 101 13.5 C 101.328125 13.5 101.660156 13.5 102 13.5 C 101.675781 16.804688 100.667969 19.816406 99.65625 22.96875 C 96.300781 33.679688 93.917969 44.441406 92 55.5 C 90.875 55.5 90.875 55.5 89.5 55 C 87.230469 51.652344 86.867188 47.988281 86.320312 44.046875 C 86.222656 43.378906 86.125 42.714844 86.027344 42.046875 C 85.769531 40.304688 85.523438 38.5625 85.277344 36.820312 C 85.023438 35.035156 84.761719 33.25 84.5 31.46875 C 83.992188 27.980469 83.492188 24.492188 83 21 C 82.90625 21.367188 82.8125 21.738281 82.714844 22.117188 C 79.199219 35.867188 79.199219 35.867188 77.21875 42.21875 C 77.046875 42.800781 76.871094 43.378906 76.691406 43.976562 C 75.523438 47.757812 74.261719 51.714844 72 55 C 70.90625 55.414062 70.90625 55.414062 70 55.5 C 71.058594 50.925781 72.296875 46.472656 73.824219 42.03125 C 74.957031 38.707031 75.921875 35.34375 76.871094 31.960938 C 77.847656 28.484375 78.914062 25.039062 80.042969 21.609375 C 80.699219 19.578125 81.214844 17.625 81.5 15.5 C 79.015625 16.121094 77.878906 16.832031 76.5 19 C 75.449219 21.429688 75.21875 23.886719 75 26.5 C 73.78125 26.3125 73.78125 26.3125 72.5 26 C 71.695312 24.390625 71.773438 22.746094 72 21 C 73.761719 17.402344 77.773438 13.421875 82 13.28125 Z M 82 13.28125 "/>
<path style=" stroke:none;fill-rule:nonzero;fill:rgb(97.647059%,98.823529%,98.039216%);fill-opacity:1;" d="M 18 13.5 C 21.449219 16.386719 21.804688 21.875 22.285156 26.0625 C 22.347656 26.578125 22.410156 27.089844 22.476562 27.621094 C 22.675781 29.246094 22.871094 30.875 23.0625 32.5 C 23.257812 34.140625 23.457031 35.78125 23.660156 37.421875 C 23.78125 38.441406 23.90625 39.457031 24.023438 40.476562 C 24.105469 41.160156 24.105469 41.160156 24.191406 41.859375 C 24.238281 42.261719 24.285156 42.664062 24.335938 43.078125 C 24.410156 44.003906 24.410156 44.003906 25 44.5 C 25.082031 44.152344 25.164062 43.804688 25.25 43.445312 C 26.851562 36.742188 28.542969 30.078125 30.554688 23.484375 C 30.839844 22.546875 31.121094 21.605469 31.402344 20.667969 C 31.582031 20.089844 31.757812 19.515625 31.945312 18.921875 C 32.097656 18.417969 32.253906 17.914062 32.414062 17.394531 C 33.070312 15.832031 33.847656 14.734375 35 13.5 C 35.328125 13.5 35.660156 13.5 36 13.5 C 35.710938 16.0625 35.097656 18.324219 34.21875 20.75 C 30.605469 31.160156 27.390625 42.582031 26.605469 53.589844 C 26.5 54.5 26.5 54.5 26 55.5 C 24.347656 55.214844 23.566406 54.792969 22.5 53.5 C 22.140625 52.453125 22.140625 52.453125 21.894531 51.21875 C 21.800781 50.746094 21.703125 50.273438 21.605469 49.785156 C 21.507812 49.269531 21.414062 48.75 21.3125 48.21875 C 21.15625 47.410156 21.15625 47.410156 20.996094 46.585938 C 19.6875 39.644531 18.71875 32.644531 17.746094 25.644531 C 17.539062 24.25 17.292969 22.878906 17 21.5 C 16.90625 21.835938 16.8125 22.167969 16.71875 22.511719 C 13.40625 34.410156 13.40625 34.410156 11.851562 39.609375 C 11.378906 41.203125 10.921875 42.792969 10.492188 44.398438 C 8.542969 51.625 8.542969 51.625 6.5 54.5 C 5.84375 54.851562 5.175781 55.1875 4.5 55.5 C 5.15625 51.652344 6.203125 47.96875 7.351562 44.246094 C 7.664062 43.222656 7.976562 42.195312 8.289062 41.171875 C 9.0625 38.628906 9.839844 36.089844 10.621094 33.550781 C 11.28125 31.394531 11.941406 29.238281 12.597656 27.082031 C 12.902344 26.078125 13.210938 25.074219 13.519531 24.070312 C 13.707031 23.457031 13.894531 22.84375 14.085938 22.210938 C 14.335938 21.40625 14.335938 21.40625 14.585938 20.582031 C 15.027344 18.894531 15.285156 17.230469 15.5 15.5 C 13.429688 15.886719 12.308594 16.484375 11.125 18.1875 C 9.640625 20.773438 9.328125 23.574219 9 26.5 C 7.566406 26.214844 7.070312 26.070312 6 25 C 5.671875 22.921875 5.621094 21.703125 6.625 19.84375 C 9.425781 16.007812 12.996094 12.566406 18 13.5 Z M 18 13.5 "/>
<path style=" stroke:none;fill-rule:nonzero;fill:rgb(95.686275%,97.647059%,96.862745%);fill-opacity:1;" d="M 126.5 31.5 C 128.851562 31.851562 128.851562 31.851562 129.5 32.5 C 129.589844 35.074219 129.421875 37.460938 129 40 C 129.183594 39.699219 129.363281 39.398438 129.550781 39.085938 C 132.320312 34.6875 132.320312 34.6875 135 33.5 C 137.382812 33.140625 139.292969 32.980469 141.28125 34.4375 C 143.066406 37.078125 142.859375 39.902344 142.5 43 C 141.191406 46.507812 138.667969 49.511719 135.5 51.5 C 132.757812 52.597656 130.355469 52.605469 127.5 52 C 127.5 51.671875 127.5 51.339844 127.5 51 C 127.820312 50.957031 128.140625 50.914062 128.46875 50.867188 C 132.355469 50.238281 134.738281 49.136719 137.15625 46 C 138.761719 43.144531 139.210938 41.261719 139 38 C 138.503906 37.257812 138.503906 37.257812 138 36.5 C 135.992188 36.160156 134.761719 35.984375 133.046875 37.144531 C 132.09375 38.058594 131.296875 38.941406 130.5 40 C 130.300781 40.257812 130.105469 40.511719 129.902344 40.777344 C 127.742188 43.855469 127.0625 47.1875 126.25 50.8125 C 123.496094 62.367188 123.496094 62.367188 122 65 C 120.929688 65.414062 120.929688 65.414062 120 65.5 C 119 64 119 64 119.324219 62.03125 C 120.046875 59.164062 120.929688 56.347656 121.8125 53.53125 C 122.132812 52.507812 122.453125 51.480469 122.769531 50.453125 C 122.910156 50.007812 123.050781 49.558594 123.195312 49.097656 C 123.542969 48.03125 123.542969 48.03125 123.5 47 C 123.277344 47.269531 123.050781 47.542969 122.820312 47.820312 C 119.082031 52.25 119.082031 52.25 116.527344 52.65625 C 114.773438 52.761719 113.71875 52.65625 112.28125 51.625 C 111.515625 50.523438 111.277344 49.785156 111 48.5 C 110.6875 48.820312 110.375 49.136719 110.050781 49.46875 C 109.640625 49.878906 109.234375 50.292969 108.8125 50.71875 C 108.40625 51.128906 108 51.542969 107.582031 51.96875 C 106.1875 53.300781 105.757812 53.476562 103.8125 53.65625 C 102 53.5 102 53.5 100.78125 52.84375 C 99.488281 50.621094 99.628906 48.5 100 46 C 101.601562 40.890625 105.578125 36.535156 110.1875 33.921875 C 112.082031 32.941406 113.328125 32.855469 115.5 33 C 118.324219 34.152344 118.324219 34.152344 119 35.5 C 119.019531 36.5 119.023438 37.5 119 38.5 C 118.175781 38.664062 117.351562 38.828125 116.5 39 C 116.429688 38.433594 116.355469 37.867188 116.28125 37.28125 C 116.195312 35.597656 116.195312 35.597656 115.5 35 C 113.464844 34.652344 112.210938 35.011719 110.53125 36.125 C 107.152344 38.855469 104.769531 43.234375 104 47.5 C 103.914062 49.144531 103.914062 49.144531 104 50.5 C 106.058594 50.585938 107.035156 50.40625 108.609375 49.03125 C 111.179688 46.214844 113.398438 43.171875 115.5 40 C 116.46875 40.15625 116.46875 40.15625 117.5 40.5 C 117.746094 41.242188 117.746094 41.242188 118 42 C 117.503906 42.828125 117.003906 43.65625 116.496094 44.476562 C 115.648438 46.230469 115.585938 48.074219 115.5 50 C 118.167969 49.789062 119.621094 49.429688 121.5 47.5 C 124.179688 44.238281 125.027344 41.410156 125.40625 37.25 C 125.511719 36.265625 125.621094 35.28125 125.726562 34.296875 C 125.769531 33.867188 125.8125 33.4375 125.851562 32.996094 C 126 32 126 32 126.5 31.5 Z M 126.5 31.5 "/>
<path style=" stroke:none;fill-rule:nonzero;fill:rgb(95.294118%,97.647059%,96.470588%);fill-opacity:1;" d="M 66 20 C 65.84375 23.554688 64.199219 26.175781 62.46875 29.21875 C 62.183594 29.726562 61.902344 30.238281 61.609375 30.761719 C 60.910156 32.011719 60.207031 33.253906 59.5 34.5 C 62.46875 34.5 65.441406 34.5 68.5 34.5 C 68.5 34.828125 68.5 35.160156 68.5 35.5 C 65.144531 35.941406 61.882812 36.058594 58.5 36 C 58.429688 36.386719 58.355469 36.773438 58.28125 37.171875 C 58 38.5 58 38.5 57.5 39.71875 C 56.242188 42.941406 56.199219 46.582031 56.5 50 C 57.425781 51.128906 57.425781 51.128906 58.84375 51.1875 C 61.398438 50.898438 63.148438 49.953125 64.835938 48.0625 C 66.191406 46.292969 67.40625 44.445312 68.5 42.5 C 69 44 69 44 68.515625 45.132812 C 66.242188 48.910156 63.75 51.9375 59.5 53.5 C 58.007812 53.765625 57.058594 53.699219 55.5 53.5 C 54.03125 52.28125 54.03125 52.28125 53 51 C 52.835938 50.835938 52.671875 50.671875 52.5 50.5 C 52.316406 49.335938 52.148438 48.167969 52 47 C 51.792969 47.265625 51.585938 47.53125 51.375 47.804688 C 48.902344 50.828125 46.855469 52.726562 42.890625 53.1875 C 38.546875 53.34375 38.546875 53.34375 36.597656 52.117188 C 34.925781 50.414062 34.660156 48.832031 34.5 46.5 C 35.136719 41.488281 38.023438 37.496094 41.851562 34.316406 C 44.035156 32.765625 45.945312 31.941406 48.6875 32.09375 C 50 32.5 50 32.5 51 33.5 C 51.230469 35.789062 51.25 36.996094 50.21875 39.0625 C 47.476562 42.296875 44.648438 44.367188 40.5 45.5 C 39.675781 45.5 38.851562 45.5 38 45.5 C 38.164062 47.148438 38.328125 48.800781 38.5 50.5 C 41.054688 51.351562 43.527344 51.351562 46.0625 50.4375 C 50.359375 47.632812 52.929688 44.613281 54.125 39.5625 C 54.210938 39.21875 54.296875 38.875 54.386719 38.519531 C 54.597656 37.679688 54.800781 36.839844 55 36 C 54.671875 35.835938 54.339844 35.671875 54 35.5 C 54 35.171875 54 34.839844 54 34.5 C 54.308594 34.472656 54.613281 34.441406 54.929688 34.414062 C 56.109375 34.09375 56.109375 34.09375 56.601562 32.867188 C 56.773438 32.375 56.945312 31.882812 57.125 31.375 C 61.511719 20 61.511719 20 66 20 Z M 66 20 "/>
<path style=" stroke:none;fill-rule:nonzero;fill:rgb(85.09804%,58.431375%,15.686275%);fill-opacity:1;" d="M 170 3.5 C 170.496094 3.664062 170.988281 3.828125 171.5 4 C 171.664062 6.144531 171.828125 8.289062 172 10.5 C 172.730469 9.984375 173.464844 9.46875 174.21875 8.9375 C 176.667969 7.375 179.105469 6.277344 181.84375 5.3125 C 182.195312 5.1875 182.542969 5.0625 182.902344 4.933594 C 191.578125 2 201.074219 3.058594 209.234375 6.949219 C 213.511719 9.074219 217 11.210938 220 15 C 220.585938 15.542969 220.585938 15.542969 221.1875 16.09375 C 227.011719 22.332031 229.859375 30.566406 230.1875 39 C 229.925781 46.085938 228.046875 54.410156 223.5 60 C 223.003906 60 222.511719 60 222 60 C 222.289062 58.199219 222.773438 56.84375 223.65625 55.25 C 225.863281 50.960938 227.300781 46.332031 227.5 41.5 C 227.539062 40.824219 227.539062 40.824219 227.578125 40.136719 C 227.835938 31.976562 225.261719 23.914062 219.75 17.8125 C 219.414062 17.480469 219.078125 17.144531 218.734375 16.800781 C 218 16 218 16 218 15 C 217.707031 14.867188 217.417969 14.734375 217.117188 14.601562 C 215.957031 13.976562 215.113281 13.269531 214.125 12.40625 C 212.039062 10.753906 209.890625 9.652344 207.46875 8.59375 C 206.972656 8.375 206.972656 8.375 206.46875 8.15625 C 202.105469 6.320312 198.238281 5.828125 193.53125 5.84375 C 193.015625 5.835938 192.5 5.828125 191.964844 5.820312 C 188.683594 5.816406 186.035156 6.253906 183 7.5 C 182.457031 7.707031 181.914062 7.910156 181.351562 8.125 C 178.707031 9.210938 176.292969 10.28125 174 12 C 175.980469 12.164062 177.960938 12.328125 180 12.5 C 179.835938 13.160156 179.671875 13.820312 179.5 14.5 C 176.199219 14.5 172.898438 14.5 169.5 14.5 C 169.488281 12.761719 169.476562 11.019531 169.46875 9.28125 C 169.464844 8.785156 169.460938 8.289062 169.457031 7.777344 C 169.453125 7.304688 169.453125 6.832031 169.453125 6.34375 C 169.449219 5.910156 169.445312 5.472656 169.441406 5.019531 C 169.5 4 169.5 4 170 3.5 Z M 170 3.5 "/>
<path style=" stroke:none;fill-rule:nonzero;fill:rgb(85.882354%,58.431375%,15.686275%);fill-opacity:1;" d="M 164 19 C 164.496094 19 164.988281 19 165.5 19 C 165.328125 20.789062 165.09375 21.863281 164.0625 23.355469 C 162.871094 25.203125 162.265625 26.910156 161.65625 29 C 161.550781 29.34375 161.445312 29.6875 161.335938 30.039062 C 158.617188 39.023438 160.085938 47.972656 164.367188 56.191406 C 168.742188 64.125 175.410156 69.203125 183.988281 71.984375 C 193.542969 74.554688 202.8125 72.894531 211.5 68.5 C 212.488281 67.757812 212.488281 67.757812 213.5 67 C 210.777344 66.753906 210.777344 66.753906 208 66.5 C 208 65.839844 208 65.179688 208 64.5 C 209.574219 64.484375 211.144531 64.476562 212.71875 64.46875 C 213.390625 64.460938 213.390625 64.460938 214.078125 64.457031 C 214.507812 64.453125 214.933594 64.453125 215.375 64.453125 C 215.769531 64.449219 216.164062 64.445312 216.570312 64.441406 C 217.5 64.5 217.5 64.5 218 65 C 218.042969 65.78125 218.054688 66.5625 218.046875 67.34375 C 218.046875 68.054688 218.046875 68.054688 218.042969 68.777344 C 218.039062 69.519531 218.039062 69.519531 218.03125 70.28125 C 218.027344 70.78125 218.027344 71.277344 218.023438 71.792969 C 218.019531 73.027344 218.011719 74.265625 218 75.5 C 217.503906 75.5 217.011719 75.5 216.5 75.5 C 216.253906 71.789062 216.253906 71.789062 216 68 C 215.132812 68.632812 215.132812 68.632812 214.25 69.28125 C 206.226562 74.609375 197.007812 76.824219 187.457031 75.191406 C 177.726562 73.191406 169.113281 67.75 163.5 59.5 C 158.367188 51.09375 156.203125 40.96875 158.457031 31.226562 C 159.542969 27.300781 161.097656 21.902344 164 19 Z M 164 19 "/>
<path style=" stroke:none;fill-rule:nonzero;fill:rgb(95.294118%,97.254902%,96.470588%);fill-opacity:1;" d="M 66 20 C 65.84375 23.554688 64.199219 26.175781 62.46875 29.21875 C 62.183594 29.726562 61.902344 30.238281 61.609375 30.761719 C 60.910156 32.011719 60.207031 33.253906 59.5 34.5 C 62.46875 34.5 65.441406 34.5 68.5 34.5 C 68.5 34.828125 68.5 35.160156 68.5 35.5 C 65.144531 35.941406 61.882812 36.058594 58.5 36 C 58.429688 36.386719 58.355469 36.773438 58.28125 37.171875 C 58 38.5 58 38.5 57.5 39.71875 C 56.242188 42.941406 56.199219 46.582031 56.5 50 C 57.425781 51.128906 57.425781 51.128906 58.84375 51.1875 C 61.398438 50.898438 63.148438 49.953125 64.835938 48.0625 C 66.191406 46.292969 67.40625 44.445312 68.5 42.5 C 69 44 69 44 68.515625 45.132812 C 66.242188 48.910156 63.75 51.9375 59.5 53.5 C 58.007812 53.765625 57.058594 53.699219 55.5 53.5 C 54.03125 52.28125 54.03125 52.28125 53 51 C 52.753906 50.753906 52.753906 50.753906 52.5 50.5 C 52.316406 49.335938 52.148438 48.167969 52 47 C 51.664062 47.40625 51.664062 47.40625 51.320312 47.820312 C 48.230469 51.480469 48.230469 51.480469 46 52.5 C 45.671875 52.5 45.339844 52.5 45 52.5 C 44.835938 52.003906 44.671875 51.511719 44.5 51 C 44.921875 50.8125 45.34375 50.628906 45.78125 50.4375 C 49.09375 48.628906 52.007812 46.210938 53.347656 42.554688 C 53.632812 41.5625 53.886719 40.570312 54.125 39.5625 C 54.210938 39.21875 54.296875 38.875 54.386719 38.519531 C 54.597656 37.679688 54.800781 36.839844 55 36 C 54.671875 35.835938 54.339844 35.671875 54 35.5 C 54 35.171875 54 34.839844 54 34.5 C 54.308594 34.472656 54.613281 34.441406 54.929688 34.414062 C 56.109375 34.09375 56.109375 34.09375 56.601562 32.867188 C 56.773438 32.375 56.945312 31.882812 57.125 31.375 C 61.511719 20 61.511719 20 66 20 Z M 66 20 "/>
<path style=" stroke:none;fill-rule:nonzero;fill:rgb(30.19608%,63.921571%,49.019608%);fill-opacity:1;" d="M 115.5 34.5 C 116.5 35.5 116.5 35.5 116.5625 37.3125 C 116.542969 37.871094 116.519531 38.425781 116.5 39 C 116.996094 39.164062 117.488281 39.328125 118 39.5 C 117.671875 39.828125 117.339844 40.160156 117 40.5 C 116.503906 40.5 116.011719 40.5 115.5 40.5 C 114.660156 41.578125 113.90625 42.640625 113.15625 43.78125 C 109.234375 49.496094 109.234375 49.496094 106.5 51 C 105.164062 51.113281 105.164062 51.113281 104 51 C 103.5 50.5 103.5 50.5 103.472656 49.53125 C 103.835938 44.476562 106.113281 40.238281 109.5 36.5 C 111.519531 34.816406 112.855469 34.140625 115.5 34.5 Z M 115.5 34.5 "/>
<path style=" stroke:none;fill-rule:nonzero;fill:rgb(27.450982%,62.7451%,47.058824%);fill-opacity:1;" d="M 48.5 34 C 48.777344 36.269531 48.390625 37.734375 46.984375 39.5625 C 45.109375 41.351562 41.214844 44.5 38.5 44.5 C 39.0625 40.445312 42.054688 37 45.179688 34.492188 C 46.320312 33.808594 47.207031 33.765625 48.5 34 Z M 48.5 34 "/>
<path style=" stroke:none;fill-rule:nonzero;fill:rgb(94.509804%,97.254902%,96.078432%);fill-opacity:1;" d="M 13 14 C 13.660156 14.328125 14.320312 14.660156 15 15 C 14.710938 15.113281 14.421875 15.226562 14.125 15.34375 C 11.414062 16.925781 10.308594 19.59375 9.5 22.5 C 9.261719 23.839844 9.121094 25.144531 9 26.5 C 7.566406 26.214844 7.070312 26.070312 6 25 C 5.667969 22.898438 5.609375 21.695312 6.660156 19.824219 C 8.484375 17.378906 10.429688 15.628906 13 14 Z M 13 14 "/>
<path style=" stroke:none;fill-rule:nonzero;fill:rgb(25.882354%,61.56863%,45.490196%);fill-opacity:1;" d="M 193 28.5 C 193.496094 28.5 193.988281 28.5 194.5 28.5 C 194.5 31.800781 194.5 35.101562 194.5 38.5 C 197.800781 38.5 201.101562 38.5 204.5 38.5 C 204.5 38.996094 204.5 39.488281 204.5 40 C 200.703125 40 196.910156 40 193 40 C 193 36.203125 193 32.410156 193 28.5 Z M 193 28.5 "/>
<path style=" stroke:none;fill-rule:nonzero;fill:rgb(89.803922%,94.509804%,92.54902%);fill-opacity:1;" d="M 68.5 42.5 C 69 44 69 44 68.515625 45.132812 C 66.601562 48.3125 64.648438 51.285156 61 52.5 C 61.09375 51.59375 61.09375 51.59375 61.5 50.5 C 61.859375 50.292969 62.222656 50.085938 62.59375 49.875 C 65.292969 48.195312 66.960938 45.234375 68.5 42.5 Z M 68.5 42.5 "/>
<path style=" stroke:none;fill-rule:nonzero;fill:rgb(92.941177%,96.078432%,94.901961%);fill-opacity:1;" d="M 122.5 46 C 123.160156 46.164062 123.820312 46.328125 124.5 46.5 C 122.617188 48.441406 120.6875 50.398438 118.5 52 C 118.171875 52 117.839844 52 117.5 52 C 117.691406 50.765625 117.828125 50.152344 118.78125 49.3125 C 119.089844 49.117188 119.398438 48.921875 119.71875 48.71875 C 121.085938 47.847656 121.558594 47.410156 122.5 46 Z M 122.5 46 "/>
<path style=" stroke:none;fill-rule:nonzero;fill:rgb(87.843138%,93.725491%,90.980393%);fill-opacity:1;" d="M 47 50 C 47.496094 50.328125 47.988281 50.660156 48.5 51 C 46.125 52.5 46.125 52.5 45 52.5 C 44.835938 52.003906 44.671875 51.511719 44.5 51 C 45.65625 50.4375 45.65625 50.4375 47 50 Z M 47 50 "/>
</g>
</svg>
