<svg version="1.2" xmlns="http://www.w3.org/2000/svg" viewBox="0 0 233 79" width="233" height="79"><style>.a{fill:#e79522}.b{fill:#f3f8f6}.c{fill:#f9fcfa}.d{fill:#f4f9f7}.e{fill:#f3f9f6}.f{fill:#d99528}.g{fill:#db9528}.h{fill:#f1f8f5}.i{fill:#429d74}.j{fill:#e5f1ec}.k{fill:#edf5f2}.l{fill:#e0efe8}</style><path class="a" d="m193 15q0 0.5 0.1 1.1 0 0.7 0.1 1.4c0 0.7 0 0.7 0.1 1.4 0.1 0.5 0.1 0.5 0.2 1.1q0.5 0.2 1 0.5 0-2.7 0-5.5c7.9 0.6 13.6 3.6 18.8 9.5 0.7 1 0.7 1 0.7 2.5q-1.3 0.7-2.7 1.5c-0.9 0.5-0.9 0.5-1.3 1.5q0.4-0.2 0.8-0.3 0.6-0.2 1.1-0.4 0.5-0.2 1.1-0.4 1.2-0.5 2.5-0.9 0.5 1.3 1 2.6c0.2 0.8 0.2 0.8 0.5 1.5 1.8 5.2 1.6 11.3-0.5 16.4q-0.5 1-1 2c-0.7-0.2-0.7-0.2-1.4-0.5-1.2-0.4-2.4-0.7-3.6-1 1.1 1.1 2.2 2.1 3.5 3-1.4 4.1-4.7 6.7-8.5 8.7-3.7 1.7-6.9 3.1-11 2.8q0-2.5 0-5-0.7 0-1.5 0 0 2.5 0 5c-5.2 0.5-9.9-1.9-14-5q-0.4-0.3-0.9-0.6c-1.9-1.6-3.2-3.3-4.6-5.4 0.8-0.9 1.4-1.5 2.6-2 1.1-0.5 1.1-0.5 1.4-2q-0.8 0.4-1.7 0.7c-1.1 0.5-2.1 0.9-3.3 1.3-2.9-5.3-4-10.9-2.6-16.9q0.8-2.3 1.6-4.6c2.6-0.7 3.7-0.1 6 1q0-0.7 0-1.5-2-0.8-4-1.5c1.6-4.7 5.5-7.4 9.7-9.7 3.1-1.4 6.3-2.3 9.8-2.3z"/><path class="b" d="m82 13.3q0.5 0 1-0.1c1.6 0.5 2.1 1.5 3 2.8 0.4 1.3 0.8 2.4 1 3.7q0.2 0.6 0.3 1.1c1 4.8 1.5 9.6 2.1 14.5q0.1 1.4 0.3 2.8 0.4 3.5 0.8 6.9c1-3.6 1.9-7.1 2.7-10.8 0.9-3.6 1.9-7.1 3-10.7q0.3-0.9 0.6-1.9c1.8-5.9 1.8-5.9 4.2-8.1q0.5 0 1 0c-0.3 3.3-1.3 6.3-2.3 9.5-3.4 10.7-5.8 21.4-7.7 32.5-1.1 0-1.1 0-2.5-0.5-2.3-3.3-2.6-7-3.2-11q-0.1-1-0.3-2-0.4-2.6-0.7-5.2-0.4-2.7-0.8-5.3-0.8-5.3-1.5-10.5-0.1 0.5-0.3 1.1c-3.5 13.8-3.5 13.8-5.5 20.1q-0.2 0.9-0.5 1.8c-1.2 3.8-2.4 7.7-4.7 11-1.1 0.4-1.1 0.4-2 0.5 1.1-4.6 2.3-9 3.8-13.5 1.2-3.3 2.1-6.7 3.1-10q1.4-5.3 3.1-10.4c0.7-2 1.2-4 1.5-6.1-2.5 0.6-3.6 1.3-5 3.5-1.1 2.4-1.3 4.9-1.5 7.5-1.2-0.2-1.2-0.2-2.5-0.5-0.8-1.6-0.7-3.3-0.5-5 1.8-3.6 5.8-7.6 10-7.7z"/><path class="c" d="m18 13.5c3.4 2.9 3.8 8.4 4.3 12.6q0.1 0.7 0.2 1.5 0.3 2.5 0.6 4.9 0.3 2.5 0.6 4.9 0.1 1.5 0.3 3.1c0.1 0.7 0.1 0.7 0.2 1.4q0.1 0.6 0.1 1.2c0.1 0.9 0.1 0.9 0.7 1.4q0.1-0.5 0.3-1.1c1.6-6.7 3.2-13.3 5.3-19.9q0.4-1.4 0.8-2.8 0.3-0.9 0.5-1.8 0.3-0.7 0.5-1.5c0.7-1.6 1.4-2.7 2.6-3.9q0.5 0 1 0c-0.3 2.6-0.9 4.8-1.8 7.2-3.6 10.5-6.8 21.9-7.6 32.9-0.1 0.9-0.1 0.9-0.6 1.9-1.7-0.3-2.4-0.7-3.5-2-0.4-1-0.4-1-0.6-2.3q-0.1-0.7-0.3-1.4-0.1-0.8-0.3-1.6c-0.1-0.8-0.1-0.8-0.3-1.6-1.3-7-2.3-14-3.3-21q-0.3-2-0.7-4.1-0.1 0.5-0.3 1c-3.3 11.9-3.3 11.9-4.8 17.1q-0.8 2.4-1.4 4.8c-2 7.2-2 7.2-4 10.1q-1 0.5-2 1c0.7-3.8 1.7-7.5 2.9-11.3q0.4-1.5 0.9-3 1.1-3.8 2.3-7.6 1-3.3 2-6.5 0.5-1.5 0.9-3 0.3-0.9 0.6-1.9c0.2-0.8 0.2-0.8 0.5-1.6 0.4-1.7 0.7-3.4 0.9-5.1-2.1 0.4-3.2 1-4.4 2.7-1.5 2.6-1.8 5.4-2.1 8.3-1.4-0.3-1.9-0.4-3-1.5-0.3-2.1-0.4-3.3 0.6-5.2 2.8-3.8 6.4-7.2 11.4-6.3z"/><path class="d" d="m126.5 31.5c2.4 0.4 2.4 0.4 3 1 0.1 2.6-0.1 5-0.5 7.5q0.3-0.4 0.6-0.9c2.7-4.4 2.7-4.4 5.4-5.6 2.4-0.4 4.3-0.5 6.3 0.9 1.8 2.7 1.6 5.5 1.2 8.6-1.3 3.5-3.8 6.5-7 8.5-2.7 1.1-5.1 1.1-8 0.5q0-0.5 0-1 0.5-0.1 1-0.1c3.9-0.7 6.2-1.8 8.7-4.9 1.6-2.9 2-4.7 1.8-8-0.5-0.7-0.5-0.7-1-1.5-2-0.3-3.2-0.5-5 0.6-0.9 1-1.7 1.8-2.5 2.9q-0.3 0.4-0.6 0.8c-2.2 3.1-2.8 6.4-3.6 10-2.8 11.6-2.8 11.6-4.3 14.2-1.1 0.4-1.1 0.4-2 0.5-1-1.5-1-1.5-0.7-3.5 0.7-2.8 1.6-5.7 2.5-8.5q0.5-1.5 1-3 0.2-0.7 0.4-1.4c0.3-1.1 0.3-1.1 0.3-2.1q-0.3 0.4-0.7 0.8c-3.7 4.5-3.7 4.5-6.3 4.9-1.7 0.1-2.8 0-4.2-1.1-0.8-1.1-1-1.8-1.3-3.1q-0.5 0.5-0.9 1-0.7 0.6-1.3 1.2-0.6 0.6-1.2 1.3c-1.4 1.3-1.8 1.5-3.8 1.7-1.8-0.2-1.8-0.2-3-0.9-1.3-2.2-1.2-4.3-0.8-6.8 1.6-5.1 5.6-9.5 10.2-12.1 1.9-1 3.1-1 5.3-0.9 2.8 1.2 2.8 1.2 3.5 2.5q0 1.5 0 3-1.2 0.2-2.5 0.5-0.1-0.8-0.2-1.7c-0.1-1.7-0.1-1.7-0.8-2.3-2-0.3-3.3 0-5 1.1-3.3 2.8-5.7 7.1-6.5 11.4-0.1 1.6-0.1 1.6 0 3 2.1 0.1 3-0.1 4.6-1.5 2.6-2.8 4.8-5.8 6.9-9 1 0.2 1 0.2 2 0.5 0.2 0.7 0.2 0.7 0.5 1.5q-0.7 1.2-1.5 2.5c-0.9 1.7-0.9 3.6-1 5.5 2.7-0.2 4.1-0.6 6-2.5 2.7-3.3 3.5-6.1 3.9-10.3q0.2-1.4 0.3-2.9 0.1-0.6 0.2-1.3c0.1-1 0.1-1 0.6-1.5z"/><path class="e" d="m66 20c-0.2 3.6-1.8 6.2-3.5 9.2q-0.5 0.8-0.9 1.6-1 1.8-2.1 3.7c3 0 5.9 0 9 0q0 0.5 0 1c-3.4 0.4-6.6 0.6-10 0.5q-0.1 0.6-0.2 1.2c-0.3 1.3-0.3 1.3-0.8 2.5-1.3 3.2-1.3 6.9-1 10.3 0.9 1.1 0.9 1.1 2.3 1.2 2.6-0.3 4.3-1.2 6-3.1q2.1-2.7 3.7-5.6c0.5 1.5 0.5 1.5 0 2.6-2.3 3.8-4.8 6.8-9 8.4-1.5 0.3-2.4 0.2-4 0-1.5-1.2-1.5-1.2-2.5-2.5q-0.2-0.2-0.5-0.5-0.3-1.7-0.5-3.5-0.3 0.4-0.6 0.8c-2.5 3-4.5 4.9-8.5 5.4-4.4 0.1-4.4 0.1-6.3-1.1-1.7-1.7-1.9-3.3-2.1-5.6 0.6-5 3.5-9 7.4-12.2 2.1-1.5 4-2.4 6.8-2.2 1.3 0.4 1.3 0.4 2.3 1.4 0.2 2.3 0.3 3.5-0.8 5.6-2.7 3.2-5.6 5.3-9.7 6.4q-1.2 0-2.5 0 0.2 2.5 0.5 5c2.6 0.9 5 0.9 7.6-0.1 4.3-2.8 6.8-5.8 8-10.8q0.2-0.6 0.3-1.1 0.3-1.2 0.6-2.5-0.5-0.2-1-0.5 0-0.5 0-1 0.5 0 0.9-0.1c1.2-0.3 1.2-0.3 1.7-1.5q0.3-0.8 0.5-1.5c4.4-11.4 4.4-11.4 8.9-11.4z"/><path class="f" d="m170 3.5q0.7 0.2 1.5 0.5c0.2 2.1 0.3 4.3 0.5 6.5q1.1-0.8 2.2-1.6c2.5-1.5 4.9-2.6 7.6-3.6q0.6-0.2 1.1-0.4c8.7-2.9 18.2-1.8 26.3 2 4.3 2.2 7.8 4.3 10.8 8.1 0.6 0.5 0.6 0.5 1.2 1.1 5.8 6.2 8.7 14.5 9 22.9-0.3 7.1-2.2 15.4-6.7 21q-0.7 0-1.5 0c0.3-1.8 0.8-3.2 1.7-4.7 2.2-4.3 3.6-9 3.8-13.8 0-0.7 0-0.7 0.1-1.4 0.2-8.1-2.3-16.2-7.9-22.3q-0.5-0.5-1-1c-0.7-0.8-0.7-0.8-0.7-1.8q-0.4-0.2-0.9-0.4c-1.1-0.6-2-1.3-3-2.2-2.1-1.6-4.2-2.7-6.6-3.8-0.5-0.2-0.5-0.2-1-0.4-4.4-1.9-8.3-2.4-13-2.4q-0.7 0-1.5 0c-3.3 0-6 0.5-9 1.7q-0.8 0.3-1.6 0.6c-2.7 1.1-5.1 2.2-7.4 3.9q3 0.2 6 0.5-0.2 1-0.5 2c-3.3 0-6.6 0-10 0q0-2.6 0-5.2 0-0.8 0-1.5 0-0.7 0-1.5-0.1-0.6-0.1-1.3c0.1-1 0.1-1 0.6-1.5z"/><path class="g" d="m164 19q0.7 0 1.5 0c-0.2 1.8-0.4 2.9-1.4 4.4-1.2 1.8-1.8 3.5-2.4 5.6q-0.2 0.5-0.4 1c-2.7 9-1.2 18 3.1 26.2 4.3 7.9 11 13 19.6 15.8 9.5 2.6 18.8 0.9 27.5-3.5 1-0.7 1-0.7 2-1.5-2.7-0.2-2.7-0.2-5.5-0.5q0-1 0-2 2.4 0 4.7 0c0.7 0 0.7 0 1.4 0q0.6 0 1.3 0 0.6-0.1 1.2-0.1c0.9 0.1 0.9 0.1 1.4 0.6q0.1 1.2 0 2.3c0 0.8 0 0.8 0 1.5 0 0.7 0 0.7 0 1.5q0 0.7 0 1.5 0 1.8 0 3.7-0.7 0-1.5 0c-0.2-3.7-0.2-3.7-0.5-7.5-0.9 0.6-0.9 0.6-1.8 1.3-8 5.3-17.2 7.5-26.7 5.9-9.8-2-18.4-7.5-24-15.7-5.1-8.4-7.3-18.5-5-28.3 1-3.9 2.6-9.3 5.5-12.2z"/><path class="b" d="m66 20c-0.2 3.6-1.8 6.2-3.5 9.2q-0.5 0.8-0.9 1.6-1 1.8-2.1 3.7c3 0 5.9 0 9 0q0 0.5 0 1c-3.4 0.4-6.6 0.6-10 0.5q-0.1 0.6-0.2 1.2c-0.3 1.3-0.3 1.3-0.8 2.5-1.3 3.2-1.3 6.9-1 10.3 0.9 1.1 0.9 1.1 2.3 1.2 2.6-0.3 4.3-1.2 6-3.1q2.1-2.7 3.7-5.6c0.5 1.5 0.5 1.5 0 2.6-2.3 3.8-4.8 6.8-9 8.4-1.5 0.3-2.4 0.2-4 0-1.5-1.2-1.5-1.2-2.5-2.5-0.2-0.2-0.2-0.2-0.5-0.5q-0.3-1.7-0.5-3.5c-0.3 0.4-0.3 0.4-0.7 0.8-3.1 3.7-3.1 3.7-5.3 4.7q-0.5 0-1 0-0.2-0.7-0.5-1.5 0.6-0.3 1.3-0.6c3.3-1.8 6.2-4.2 7.5-7.8q0.5-1.5 0.8-3 0.2-0.6 0.3-1.1 0.3-1.2 0.6-2.5-0.5-0.2-1-0.5 0-0.5 0-1 0.5 0 0.9-0.1c1.2-0.3 1.2-0.3 1.7-1.5q0.3-0.8 0.5-1.5c4.4-11.4 4.4-11.4 8.9-11.4z"/><path class="h" d="m13 14q1 0.5 2 1-0.4 0.2-0.9 0.3c-2.7 1.6-3.8 4.3-4.6 7.2-0.2 1.3-0.4 2.6-0.5 4-1.4-0.3-1.9-0.4-3-1.5-0.3-2.1-0.4-3.3 0.7-5.2 1.8-2.4 3.7-4.2 6.3-5.8z"/><path class="i" d="m193 28.5q0.7 0 1.5 0c0 3.3 0 6.6 0 10 3.3 0 6.6 0 10 0q0 0.7 0 1.5c-3.8 0-7.6 0-11.5 0 0-3.8 0-7.6 0-11.5z"/><path class="j" d="m68.5 42.5c0.5 1.5 0.5 1.5 0 2.6-1.9 3.2-3.9 6.2-7.5 7.4 0.1-0.9 0.1-0.9 0.5-2q0.5-0.3 1.1-0.6c2.7-1.7 4.4-4.7 5.9-7.4z"/><path class="k" d="m122.5 46q1 0.2 2 0.5c-1.9 1.9-3.8 3.9-6 5.5q-0.5 0-1 0c0.2-1.2 0.3-1.8 1.3-2.7q0.4-0.3 0.9-0.6c1.4-0.9 1.9-1.3 2.8-2.7z"/><path class="l" d="m47 50q0.7 0.5 1.5 1c-2.4 1.5-2.4 1.5-3.5 1.5q-0.2-0.7-0.5-1.5c1.2-0.6 1.2-0.6 2.5-1z"/></svg>